<?xml version="1.0" encoding="utf-8"?>
<!-- Generator: Adobe Illustrator 28.0.0, SVG Export Plug-In . SVG Version: 6.00 Build 0)  -->
<svg version="1.1" id="Layer_1" xmlns="http://www.w3.org/2000/svg" xmlns:xlink="http://www.w3.org/1999/xlink" x="0px" y="0px"
	 width="169.2px" height="50px" viewBox="0 0 169.2 50" style="enable-background:new 0 0 169.2 50;" xml:space="preserve">
<style type="text/css">
	.st0{fill:#A5D392;}
</style>
<g>
	<g>
		<path class="st0" d="M0,19.2V0h8.6c1.2,0,2.2,0.4,3,1.3c0.8,0.8,1.3,1.8,1.3,3v1.1c0,1.2-0.4,2.2-1.1,2.9S10,9.4,8.6,9.6
			c1.4,0,2.5,0.4,3.2,1.3c0.7,0.9,1.1,1.9,1.1,3V15c0,1.2-0.4,2.2-1.3,3c-0.8,0.8-1.8,1.3-3,1.3H0z M4.3,8.6h2.1
			c0.6,0,1.1-0.2,1.5-0.6C8.3,7.5,8.6,7,8.6,6.4V4.3c0-0.6-0.2-1.1-0.6-1.5C7.5,2.4,7,2.1,6.4,2.1H4.3V8.6z M4.3,17.1h2.1
			c0.6,0,1.1-0.2,1.5-0.6C8.3,16,8.6,15.5,8.6,15v-2.1c0-1.4-0.7-2.1-2.1-2.1H4.3V17.1z"/>
		<path class="st0" d="M37.4,0h4.3v15c0,1.2-0.4,2.2-1.3,3c-0.8,0.8-1.8,1.3-3,1.3h-4.3c-1.2,0-2.2-0.4-3-1.3
			c-0.8-0.8-1.3-1.8-1.3-3V0h4.3v15c0,0.6,0.2,1.1,0.6,1.5s0.9,0.6,1.5,0.6c0.6,0,1.1-0.2,1.5-0.6s0.6-0.9,0.6-1.5V0z"/>
		<path class="st0" d="M59.8,19.2V2.1h-4.3V0h12.8v2.1h-4.3v17.1H59.8z"/>
		<path class="st0" d="M82.3,19.2V0h1l11.8,10.7V0h2.1v19.2h-1L84.4,8.6v10.7H82.3z"/>
		<path class="st0" d="M0,30.8h4.3v17.1h2.1c0.6,0,1.1-0.2,1.5-0.6c0.4-0.4,0.6-0.9,0.6-1.5v-15h4.3v17.1H15c0.6,0,1.1-0.2,1.5-0.6
			c0.4-0.4,0.6-0.9,0.6-1.5v-15h4.3v11.9c0,2-0.7,3.7-2.1,5.1c-1.4,1.4-3.2,2.2-5.2,2.2H8.6v-0.7c-0.8,0.5-1.8,0.7-3,0.7H0V30.8z"/>
		<path class="st0" d="M25.9,50V35c0-1.2,0.4-2.2,1.3-3c0.8-0.8,1.8-1.3,3-1.3h4.3c1.2,0,2.2,0.4,3,1.3c0.8,0.8,1.3,1.8,1.3,3v15
			h-4.3v-8.6h-4.3V50H25.9z M30.1,39.3h4.3V35c0-0.6-0.2-1.1-0.6-1.5c-0.4-0.4-0.9-0.6-1.5-0.6c-0.6,0-1.1,0.2-1.5,0.6
			c-0.4,0.4-0.6,0.9-0.6,1.5V39.3z"/>
		<path class="st0" d="M43.2,50V30.8h4.3v17.1h6.4V50H43.2z"/>
		<path class="st0" d="M58.3,50V30.8h4.3v17.1H69V50H58.3z"/>
		<path class="st0" d="M73.5,50V30.8h10.7v2.1h-6.4v6.4h4.3v2.1h-4.3v6.4h6.4V50H73.5z"/>
		<path class="st0" d="M90.8,50V32.9h-4.3v-2.1h12.8v2.1h-4.3V50H90.8z"/>
	</g>
	<g>
		<path class="st0" d="M169.2,27.8c0-3-0.2-5.3-3.3-6c0-0.6,0-1.3,0.1-1.9c0.1-1.9,0.2-3.8-0.2-5.3c-0.3-1-0.8-1.8-1.5-2.5
			c0.1-2,0.2-4,0.2-5.9c0-2.1-0.4-3.6-1.4-4.6c-1.1-1.1-2.7-1.3-4.1-1.4c-2.1-0.1-4.3-0.1-6.4-0.1c-0.9,0-1.7,0-2.6,0
			c-2.7,0-5.4,0-8.2,0c-3.5,0-7,0-10.5,0.1c-2.8,0-5.6,0.1-8.4,0.1l-0.6,0c-0.7,0-1.3,0-2,0c-0.7,0-1.4,0-2.1,0
			c-1.6,0-2.8,0.1-4,0.3c-2.9,0.5-4.9,2.4-5.3,4.9l0.1,0.1l-0.1,0c-0.5,3.6-0.3,7.4-0.1,11c0.1,1.3,0.1,2.5,0.2,3.8
			c0.1,2.3,0,4.6,0,6.8c-0.1,5.4-0.2,10.9,1.1,16.3c0.9,3.5,1.8,4.9,5.2,5.7c2.6,0.6,5.2,0.7,7.3,0.7c0.9,0,1.7,0,2.6,0l0.2,0
			c0.9,0,1.8,0,2.7,0c3.1,0,6.3,0.1,9.3,0.2c3.1,0.1,6.2,0.2,9.3,0.2c2.2,0,4.2,0,6.2-0.1c0.5,0,1.1,0,1.6,0
			c3.3-0.1,6.8-0.2,9.2-2.6c1.8-1.8,1.7-4.8,1.6-7.6c0-1,0-1.9,0-2.7c0.1,0,0.2,0,0.4,0c0.2,0,0.3,0,0.5,0c0.4,0,0.9,0,1.3-0.3
			c1.7-1.2,1.7-5.6,1.7-8C169.2,28.4,169.2,28.1,169.2,27.8z M141.9,48.7c-2.3,0-4.7-0.1-6.9-0.2c-2.6-0.1-5.3-0.2-8-0.2h-0.1
			c-0.8,0-1.5,0-2.3,0c-0.7,0-1.5,0-2.2,0c-2,0-4.4-0.1-6.8-0.6c-1.7-0.4-2.8-1.3-3.5-2.7c0.2,0.1,0.4,0.1,0.7,0.1
			c0.4,0,0.6-0.3,0.6-0.7c0-0.3-0.2-0.7-0.6-0.7c-0.4,0-0.7-0.1-1-0.4c-0.1-0.1-0.2-0.1-0.3-0.2c-0.2-0.6-0.3-1.1-0.4-1.8
			c-0.5-2.5-0.8-5.1-0.9-8c0-1.9,0-3.9,0.1-5.8c0.1-2,0.2-4.2,0.1-6.3c0-1.3-0.1-2.6-0.2-3.9c-0.1-1.1-0.1-2.3-0.2-3.4
			c0.1,0.1,0.2,0.1,0.3,0.2c0.1,0,0.2,0.1,0.3,0.1c0.3,0,0.6-0.2,0.7-0.6c0.1-0.3-0.1-0.5-0.3-0.7c-0.4-0.2-0.7-0.4-1-0.5
			c0-1.2,0-2.3,0-3.4c1,1.1,2.6,1.7,5,1.7l1.3,0c1.3,0,2.7,0,4,0c1.3,0,2.7,0,4,0c2,0,3.7,0,5.2,0.1c1.1,0,2.2,0.1,3.5,0.1
			c2,0,4-0.1,6-0.1c1.1,0,2.2-0.1,3.3-0.1c1.1,0,2.3,0,3.4,0c4,0,7.9,0.2,11.6,0.5l0.6,0c1.7,0.1,3.5,0.3,4.8,1.4
			c1.7,1.3,1.8,2.9,1.8,5.1l0,1.1c0,1,0,1.9,0,2.9l-0.5,0c-1.3,0-2.7,0.1-4,0.1c-1.1,0.1-2.1,0.1-3.2,0.1c-2.4,0-4.3,0.1-6,2.1
			c-1.7,2.1-2.5,5.2-2,7.7c0.4,1.8,1.4,3.2,3,4c2.3,1.1,5,1.2,7.5,1.2l0.7,0l1,0v0.1c0,0.4,0.3,0.6,0.7,0.6c0.3,0,0.7-0.2,0.7-0.6
			V37l1.6,0c-0.1,1.1-0.1,2.2-0.2,3.3c0,1-0.1,2.1-0.2,3.1c-0.3,3.6-2.8,4.6-6.5,4.9c-3.5,0.3-7.4,0.4-12.1,0.4
			C144,48.7,142.9,48.7,141.9,48.7z M118.1,1.5c0.6,0,1.2,0,1.8,0c0.6,0,1.2,0,1.8,0l0.6,0c5.3-0.1,10.4-0.1,15.6-0.2c1,0,2,0,2.9,0
			c4.6,0,9.5,0,14.9,0.2l0.5,0c3.3,0.1,6.7,0.1,6.8,4.3c0,1.5-0.1,3.1-0.1,4.6l0,0.8c-0.4-0.2-0.7-0.4-1.1-0.5c0,0,0-0.1,0-0.1
			c0-1.7,0-2.6-0.4-3c0.2-1.9,0.1-3.2-0.5-3.7c-0.4-0.4-1.1-0.6-2.1-0.6c-0.7,0-1.5,0.1-2.1,0.2c-0.5,0.1-0.9,0.1-1.2,0.1
			c-1.4,0-2.8,0-4.2,0c-4.3,0-8.6-0.1-12.8-0.2l-1.3,0c-4.3-0.1-8.7-0.2-13-0.2c-1.5,0-2.9,0-4.4,0c-0.6,0-1.2,0-1.8,0
			c-1.9,0-3.9,0-5.8,0.3c-0.6,0.1-1.1,0.2-1.6,0.4c0.7-1.2,1.9-2,3.7-2.3C115.7,1.5,117.1,1.5,118.1,1.5z M112.3,4.9
			c0.7-0.3,1.7-0.4,3-0.4c0.7,0,1.3,0,2,0.1c0.6,0,1.2,0.1,1.7,0.1l0.3,0c1.6,0,3.2,0,4.8,0c3.2,0,6.4,0.1,10.2,0.1l3.5,0.1
			C141.4,4.9,145,5,148.6,5c0.9,0,1.8,0,2.7,0c1.4,0,2.8,0,4.1,0c0.3,0,0.7-0.1,1.1-0.1c0.6-0.1,1.2-0.1,1.7-0.1
			c0.4,0,0.7,0,0.9,0.1c1.1,0.5,1.1,1.2,1,2.2C159.7,7,159.1,7,158.3,7c-2.5-0.1-5.1-0.1-8.3-0.1c-1.6,0-3.2,0-4.8,0
			c-1.7,0-3.4,0-5.1,0c-2.9,0-5.9,0-8.8,0c-5.7,0-10.3-0.1-14.4-0.3c-1,0-2.1-0.1-3.1-0.2c-0.8,0-1.9-0.6-2-1
			C111.7,5.3,112,5.1,112.3,4.9z M119,8.1c0.2,0,0.4,0,0.5,0c3.4,0.1,7.1,0.2,11.8,0.2c1.1,0,2.2,0,3.3,0c2,0,3.9,0,5.9,0
			c3,0,5.9,0,8.9,0h0.2c2.3,0,4.6,0,6.9,0c0.2,0,0.5,0,0.9,0c0.4,0,0.9-0.1,1.4-0.1c0.6,0,0.9,0.1,1.1,0.2c0.7,0.4,0.7,1,0.6,1.7
			c0,0.1,0,0.2,0,0.4c-0.6-0.1-1.3-0.2-2-0.3c-3.6-0.3-7.4-0.5-12.1-0.5c-2.9,0-5.9,0.1-8.8,0.1l-1.4,0c-0.5,0-0.9,0-1.4,0
			c-2,0-4.1-0.1-6.1-0.2c-1.7-0.1-3.5-0.1-5.3-0.2l-0.9,0c-1.8,0-3.5,0-5.2,0.1c-0.3,0-0.7,0-1.1,0.1c-0.5,0-1,0.1-1.6,0.1
			c-1,0-1.8-0.1-2.5-0.4c-0.8-0.4-1.5-1-1.8-1.9c1.5,0.8,3.6,0.9,5.3,0.9c0,0,0,0,0,0c0.7,0,1.3,0,1.9,0C118,8.1,118.6,8.1,119,8.1z
			 M163.7,35.7C163.7,35.7,163.7,35.7,163.7,35.7c-0.6,0-1.2,0-1.8,0.1c-1,0-2.1,0.1-3.2,0.1c-2.9,0-7-0.4-8.3-3.4
			c-0.6-1.4-0.6-3,0.1-4.9c1-2.7,2.7-4,5.3-4.1c0.9,0,1.8-0.1,2.8-0.1c1.7-0.1,3.4-0.2,5.1-0.2c0.6,0,1.2,0,1.8,0
			c2.9,0.7,2.6,4.5,2.3,7.1l-0.1,0.6l0,0.5c-0.1,1.5-0.3,3.8-1.8,4.4c-0.2,0.1-0.4,0.1-0.8,0.1c-0.2,0-0.5,0-0.8,0
			C164.2,35.7,164,35.7,163.7,35.7z"/>
		<path class="st0" d="M157.3,25.7c-0.1-0.1-0.2-0.1-0.3-0.1c-0.1,0-0.1,0-0.2,0c0,0,0,0-0.1,0c-0.2,0-0.4,0-0.5,0
			c-2,0-3.7,1.2-4.2,3c-0.7,2.2,0.3,4.3,2.3,5.1c0.5,0.2,1,0.3,1.5,0.3c1.7,0,3.1-1.1,3.8-2.8c0.4-1.1,0.5-2.2,0-3.2
			C159.2,26.9,158.4,26.2,157.3,25.7z M155.8,32.5c-0.4,0-0.7-0.1-1.1-0.2c-1.2-0.4-1.8-1.4-1.6-2.7c0.2-1.4,1.4-2.8,3.1-2.8
			c0.2,0,0.3,0,0.5,0c0.9,0.3,1.5,0.8,1.8,1.5c0.3,0.7,0.2,1.6-0.3,2.5C157.6,31.9,156.8,32.5,155.8,32.5z"/>
		<path class="st0" d="M116.5,13.8c0-0.3-0.2-0.6-0.6-0.6c0,0-2.1,0.1-2.1,0.1c-0.4,0-0.6,0.4-0.6,0.7c0,0.3,0.2,0.6,0.6,0.6
			l2.1-0.1C116.3,14.5,116.5,14.1,116.5,13.8z"/>
		<path class="st0" d="M122.5,13.7c0-0.3-0.2-0.6-0.6-0.6c0,0-2.5,0.2-2.5,0.2c-0.4,0-0.6,0.4-0.6,0.7c0,0.3,0.3,0.6,0.6,0.6
			l2.5-0.2C122.3,14.4,122.5,14,122.5,13.7z"/>
		<path class="st0" d="M127.7,14c0-0.3-0.2-0.7-0.6-0.7c-0.2,0-0.4,0-0.6,0c-0.3,0-0.7,0-1,0c-0.4,0-0.6,0.4-0.6,0.7
			c0,0.3,0.2,0.6,0.6,0.6l0,0c0.3,0,0.6,0,1,0c0.2,0,0.6,0,0.6,0C127.4,14.6,127.7,14.3,127.7,14z"/>
		<path class="st0" d="M133.7,13.9c0-0.3-0.2-0.6-0.6-0.6c0,0,0,0,0,0c-0.6,0-1.3,0-1.9,0l-0.2,0c-0.4,0-0.6,0.3-0.6,0.7
			c0,0.3,0.2,0.7,0.6,0.7h0.1c0.6,0,1.3,0,1.9,0C133.5,14.6,133.7,14.3,133.7,13.9z"/>
		<path class="st0" d="M139.5,14.2c0-0.3-0.2-0.7-0.6-0.8c-0.7-0.1-1.4-0.1-2-0.1l-0.2,0c-0.4,0-0.6,0.3-0.6,0.7
			c0,0.3,0.2,0.7,0.6,0.7l0.2,0c0.7,0,1.3,0,2,0.1l0.1,0C139.3,14.7,139.5,14.4,139.5,14.2z"/>
		<path class="st0" d="M144.7,14.7L144.7,14.7c0.4,0,0.6-0.3,0.7-0.6c0-0.3-0.2-0.7-0.6-0.7c-0.2,0-0.4,0-0.6,0
			c-0.3,0-0.5-0.1-0.8-0.1c-0.3,0-0.5,0-0.7,0.1c-0.3,0.1-0.5,0.3-0.5,0.7c0,0.3,0.3,0.6,0.7,0.6c0.1,0,0.1,0,0.2,0
			c0.1,0,0.3-0.1,0.5-0.1c0.2,0,0.5,0,0.7,0.1C144.3,14.7,144.5,14.7,144.7,14.7z"/>
		<path class="st0" d="M148.1,14.5c0.4,0,0.8,0,1.1,0c0.6,0,1.2,0,1.8,0c0.4,0,0.6-0.4,0.6-0.7c0-0.3-0.2-0.6-0.6-0.6h0
			c-0.6,0-1.2,0-1.8,0c-0.4,0-0.8,0-1.2,0c-0.4,0-0.6,0.3-0.6,0.6C147.4,14.2,147.6,14.5,148.1,14.5z"/>
		<path class="st0" d="M154.6,14.5L154.6,14.5c0.2,0,0.4,0,0.7,0c0.5,0,1,0,1.6,0.1l0.1,0c0.4,0,0.6-0.3,0.6-0.6
			c0-0.3-0.2-0.7-0.6-0.8c-0.5-0.1-1.1-0.1-1.6-0.1c-0.2,0-0.4,0-0.7,0c-0.4,0-0.6,0.4-0.6,0.7C154,14.2,154.2,14.5,154.6,14.5z"/>
		<path class="st0" d="M160.3,16.4c0.1,0.2,0.3,0.3,0.5,0.3c0.2,0,0.5-0.1,0.6-0.4c0.1-0.2,0.1-0.4,0-0.6c-0.3-0.6-0.7-1.1-1.2-1.6
			c-0.1-0.1-0.3-0.2-0.4-0.2c-0.3,0-0.5,0.2-0.6,0.4c-0.1,0.2-0.1,0.5,0.1,0.7C159.8,15.5,160.1,15.9,160.3,16.4z"/>
		<path class="st0" d="M161,18.6c-0.2,0-0.4,0.1-0.5,0.2c-0.1,0.1-0.2,0.3-0.2,0.5l0.1,1.9c0,0.4,0.4,0.6,0.7,0.6
			c0.2,0,0.4-0.1,0.5-0.2c0.1-0.1,0.2-0.3,0.2-0.5l-0.1-1.9C161.7,18.8,161.4,18.6,161,18.6z"/>
		<path class="st0" d="M117.9,44.7l-1.6-0.1c-0.4,0-0.6,0.3-0.6,0.6c0,0.3,0.2,0.7,0.6,0.7L118,46c0.4,0,0.6-0.3,0.6-0.6
			C118.6,45.1,118.4,44.7,117.9,44.7z"/>
		<path class="st0" d="M124,44.6l-2.9-0.1c-0.4,0-0.6,0.3-0.6,0.6c0,0.3,0.2,0.7,0.6,0.7l2.9,0.1c0.4,0,0.6-0.3,0.6-0.6
			C124.7,45,124.5,44.7,124,44.6z"/>
		<path class="st0" d="M130.2,44.5C130.2,44.5,130.2,44.5,130.2,44.5c-0.5,0.1-0.9,0.1-1.4,0.1c-0.4,0-0.7,0-1.2-0.1
			c-0.4,0-0.6,0.3-0.6,0.6c0,0.3,0.2,0.7,0.6,0.8c0.4,0,0.7,0.1,1.1,0.1c0,0,0,0,0,0c0.5,0,0.9,0,1.4-0.1c0.4-0.1,0.6-0.4,0.6-0.8
			C130.8,44.8,130.6,44.5,130.2,44.5z"/>
		<path class="st0" d="M135.7,44.5l-1.8,0.1c-0.4,0-0.6,0.4-0.6,0.7c0,0.3,0.2,0.6,0.6,0.6l1.8-0.1c0.4,0,0.6-0.4,0.6-0.7
			C136.3,44.8,136.1,44.5,135.7,44.5z"/>
		<path class="st0" d="M141.8,44.7l-2,0c-0.4,0-0.6,0.3-0.6,0.7c0,0.3,0.2,0.7,0.6,0.7l2,0c0.4,0,0.6-0.3,0.6-0.7
			C142.4,45,142.2,44.7,141.8,44.7z"/>
		<path class="st0" d="M147.5,44.5c-0.1,0-0.1,0-0.2,0c-0.6,0.1-1.2,0.2-1.8,0.2c-0.3,0-0.6,0-1-0.1c-0.4,0-0.6,0.3-0.6,0.6
			c0,0.3,0.2,0.7,0.6,0.8c0.3,0,0.6,0.1,1,0.1c0.7,0,1.4-0.1,2.1-0.2c0.3-0.1,0.5-0.3,0.5-0.7C148.1,44.9,147.9,44.5,147.5,44.5z"/>
		<path class="st0" d="M152.7,44.6C152.7,44.6,152.7,44.6,152.7,44.6c-0.1,0-0.3,0-0.4,0c-0.3,0-0.6,0-0.9-0.1c-0.3,0-0.6-0.1-1-0.1
			c-0.1,0-0.3,0-0.4,0c-0.4,0-0.6,0.4-0.6,0.7c0,0.3,0.2,0.6,0.6,0.6c0,0,0,0,0,0c0.1,0,0.3,0,0.4,0c0.3,0,0.6,0,0.9,0.1
			c0.3,0,0.6,0.1,1,0.1c0.1,0,0.3,0,0.4,0c0.4,0,0.6-0.4,0.6-0.7C153.3,44.9,153.2,44.6,152.7,44.6z"/>
		<path class="st0" d="M157.3,45.7C157.3,45.7,157.3,45.7,157.3,45.7l0.1,0.1c0.4,0,0.6-0.3,0.6-0.6c0-0.3-0.2-0.7-0.7-0.7
			c-0.4,0-0.7,0.1-1,0.1c-0.3,0.1-0.7,0.1-1,0.1v0.1c0,0,0,0,0,0l-0.1-0.1c-0.4,0-0.6,0.3-0.6,0.6c0,0.3,0.2,0.7,0.6,0.7l0.1,0
			c0.4,0,0.7-0.1,1-0.1c0.3-0.1,0.7-0.1,1-0.1V45.7z"/>
		<path class="st0" d="M159.5,45.4L159.5,45.4c1-0.1,1.8-0.6,2.3-1.4c0.1-0.2,0.1-0.4,0-0.6c-0.1-0.2-0.4-0.4-0.6-0.4
			c-0.2,0-0.4,0.1-0.5,0.3c-0.2,0.4-0.6,0.7-1.1,0.7c-0.4,0-0.6,0.4-0.6,0.7C158.9,45.1,159.1,45.4,159.5,45.4z"/>
		<path class="st0" d="M161.3,41.6c0.3,0,0.7-0.2,0.7-0.6l0.2-1.5c0-0.2,0-0.3-0.1-0.5c-0.1-0.1-0.3-0.2-0.5-0.2
			c-0.3,0-0.7,0.2-0.7,0.6l-0.2,1.5c0,0.2,0,0.3,0.1,0.5C161,41.5,161.1,41.6,161.3,41.6z"/>
		<path class="st0" d="M165.5,25.9c0.2,0.4,0.3,0.9,0.3,1.4c0,0.2,0,0.5,0.1,0.7c0.1,0.3,0.3,0.5,0.6,0.5c0.2,0,0.4-0.1,0.6-0.3
			c0.1-0.2,0.2-0.4,0.1-0.6c0-0.2-0.1-0.5-0.1-0.7c-0.1-0.7-0.2-1.5-0.7-2.1c-0.7-0.8-1.7-0.9-2.5-0.9c-0.2,0-0.4,0-0.5,0
			c-0.4,0-0.6,0.4-0.6,0.7c0,0.3,0.2,0.6,0.6,0.6l0.1,0c0.2,0,0.4,0,0.5,0C164.5,25.3,165.2,25.3,165.5,25.9z"/>
		<path class="st0" d="M166.2,29.4c-0.3,0-0.7,0.2-0.7,0.7c0,0.4,0.3,0.6,0.7,0.6c0.2,0,0.3-0.1,0.5-0.2c0.1-0.1,0.2-0.3,0.2-0.5
			C166.9,29.6,166.6,29.4,166.2,29.4z"/>
	</g>
</g>
</svg>
